<svg xmlns="http://www.w3.org/2000/svg" xmlns:xlink="http://www.w3.org/1999/xlink" width="44.922" height="44.922" viewBox="0 0 44.922 44.922">
  <defs>
    <linearGradient id="linear-gradient" y1="1.113" x2="2.735" y2="0.126" gradientUnits="objectBoundingBox">
      <stop offset="0" stop-color="#565ca6"/>
      <stop offset="1" stop-color="#32a5aa"/>
    </linearGradient>
  </defs>
  <g id="BusinessProcess_icon" transform="translate(-1 -1)">
    <path id="Path_2" data-name="Path 2" d="M10.487,11.984a4.492,4.492,0,1,1,4.492-4.492A4.5,4.5,0,0,1,10.487,11.984Zm0-7.487a2.995,2.995,0,1,0,2.995,2.995A3,3,0,0,0,10.487,4.5ZM6.743,44.927a.749.749,0,0,1-.749-.749V36.691a.749.749,0,0,1,1.5,0v7.487A.749.749,0,0,1,6.743,44.927ZM3.749,29.953A.749.749,0,0,1,3,29.2V18.723c0-2.423,1.963-5.241,4.492-5.241H14.23a.749.749,0,1,1,0,1.5H7.492c-1.613,0-2.995,2.059-2.995,3.743V29.2A.749.749,0,0,1,3.749,29.953Z" transform="translate(0.995 0.995)" fill="url(#linear-gradient)"/>
    <path id="Path_3" data-name="Path 3" d="M6.99,34.445H2.5a1.5,1.5,0,0,1-1.5-1.5V29.953a1.5,1.5,0,0,1,1.5-1.5H6.99a1.5,1.5,0,0,1,1.5,1.5v2.995A1.5,1.5,0,0,1,6.99,34.445Zm0-1.5v0ZM2.5,29.953v2.995H6.988V29.953ZM38.435,11.984a4.492,4.492,0,1,1,4.492-4.492A4.5,4.5,0,0,1,38.435,11.984Zm0-7.487A2.995,2.995,0,1,0,41.43,7.492,3,3,0,0,0,38.435,4.5Zm5.241,40.43a.749.749,0,0,1-.749-.749V29.2a.749.749,0,0,1,.749-.749.749.749,0,0,0,.749-.749V18.723c0-1.685-1.382-3.743-2.995-3.743H34.691a.749.749,0,1,1,0-1.5H41.43c2.529,0,4.492,2.818,4.492,5.241v8.984a2.249,2.249,0,0,1-1.5,2.117V44.178A.749.749,0,0,1,43.676,44.927ZM35.44,34.445H33.194a.749.749,0,0,1,0-1.5H35.44V29.953H33.194a.749.749,0,1,1,0-1.5H35.44a1.5,1.5,0,0,1,1.5,1.5v2.995A1.5,1.5,0,0,1,35.44,34.445Z" transform="translate(0 0.995)" fill="url(#linear-gradient)"/>
    <path id="Path_4" data-name="Path 4" d="M21.477,9.984a4.492,4.492,0,1,1,4.492-4.492A4.5,4.5,0,0,1,21.477,9.984Zm0-7.487a2.995,2.995,0,1,0,2.995,2.995A3,3,0,0,0,21.477,2.5ZM35.7,45.922a.749.749,0,0,1-.749-.749V34.691a.749.749,0,1,1,1.5,0V45.173A.749.749,0,0,1,35.7,45.922Zm-26.953,0A.749.749,0,0,1,8,45.173V34.691a.749.749,0,1,1,1.5,0V45.173A.749.749,0,0,1,8.749,45.922Zm8.984,0a.749.749,0,0,1-.749-.749V36.189a.749.749,0,0,1,1.5,0v8.984A.749.749,0,0,1,17.733,45.922Zm8.984,0a.749.749,0,0,1-.749-.749V28.7a.749.749,0,0,1,.749-.749.749.749,0,0,0,.749-.749V16.723c0-1.685-1.382-3.743-2.995-3.743h-5.99c-1.613,0-3.089,2.075-3.165,3.775l-.578,11.984a.749.749,0,0,1-1.5-.072l.579-11.982c.109-2.454,2.128-5.2,4.66-5.2h5.99c2.529,0,4.492,2.818,4.492,5.241V27.2a2.249,2.249,0,0,1-1.5,2.117V45.173A.749.749,0,0,1,26.717,45.922Zm-4.492-.749v0Z" transform="translate(3.482)" fill="url(#linear-gradient)"/>
    <path id="Path_5" data-name="Path 5" d="M21.23,36.969a.749.749,0,0,1-.749-.749V22.743a.749.749,0,1,1,1.5,0V36.22A.749.749,0,0,1,21.23,36.969ZM15.99,24.99H11.5a1.5,1.5,0,0,1-1.5-1.5V20.5A1.5,1.5,0,0,1,11.5,19H15.99a1.5,1.5,0,0,1,1.5,1.5v2.995A1.5,1.5,0,0,1,15.99,24.99Zm0-1.5v0ZM11.5,20.5v2.995h4.491V20.5Z" transform="translate(4.477 8.953)" fill="url(#linear-gradient)"/>
  </g>
</svg>
