<svg xmlns="http://www.w3.org/2000/svg" xmlns:xlink="http://www.w3.org/1999/xlink" width="46.738" height="41.58" viewBox="0 0 46.738 41.58">
  <defs>
    <linearGradient id="linear-gradient" y1="1" x2="0.891" y2="0.158" gradientUnits="objectBoundingBox">
      <stop offset="0" stop-color="#565ca6"/>
      <stop offset="1" stop-color="#32a5aa"/>
    </linearGradient>
  </defs>
  <g id="ConsultingService_icon" transform="translate(-0.044 -28.29)">
    <path id="Path_6" data-name="Path 6" d="M46.778,65.365a.719.719,0,0,0-.14-.4L41.1,57.5V38.019a3.245,3.245,0,0,0-3.242-3.241H36.429V30.711a2.424,2.424,0,0,0-2.421-2.421H24.9a4.555,4.555,0,0,0-4.55,4.55v1.939H8.971A3.245,3.245,0,0,0,5.73,38.019V57.5L.2,64.966a1.211,1.211,0,0,0-.148.746A4.536,4.536,0,0,0,4.527,69.87H42.313A4.465,4.465,0,0,0,46.778,65.365Zm-44.544-.7,4.595-6.2H40.006l4.595,6.2Zm8.7-7.659a5.514,5.514,0,0,1,10.934,0ZM21.812,32.839A3.092,3.092,0,0,1,24.9,29.75h9.108a.961.961,0,0,1,.961.961V34.89a3.092,3.092,0,0,1-3.089,3.089H24a.731.731,0,0,0-.633.367l-1.559,2.71V32.839ZM7.191,38.019a1.782,1.782,0,0,1,1.781-1.781h11.38v5.1a1.385,1.385,0,0,0,2.584.69l1.49-2.592H31.88a4.558,4.558,0,0,0,4.345-3.2h1.637a1.783,1.783,0,0,1,1.781,1.781v18.99h-16.3a6.981,6.981,0,0,0-13.886,0H7.191ZM42.313,68.41H4.527a3.016,3.016,0,0,1-2.921-2.278H45.234A3.016,3.016,0,0,1,42.313,68.41Z" transform="translate(0 0)" fill="url(#linear-gradient)"/>
    <path id="Path_7" data-name="Path 7" d="M163.623,94.224H147.236a.73.73,0,1,0,0,1.46h16.387a.73.73,0,1,0,0-1.46Zm-15.209-11.64a3.1,3.1,0,0,0,3.093-3.093V77.716a3.093,3.093,0,0,0-6.187,0v1.776A3.1,3.1,0,0,0,148.414,82.585Zm-1.633-4.869a1.633,1.633,0,0,1,3.266,0v1.776a1.633,1.633,0,0,1-3.266,0Zm10-11.226h7.234a.73.73,0,1,0,0-1.46h-7.234a.73.73,0,1,0,0,1.46Zm0,2.98h5.364a.73.73,0,1,0,0-1.46h-5.364a.73.73,0,1,0,0,1.46Z" transform="translate(-132.013 -33.385)" fill="url(#linear-gradient)"/>
  </g>
</svg>
