<svg xmlns="http://www.w3.org/2000/svg" xmlns:xlink="http://www.w3.org/1999/xlink" width="35" height="52.526" viewBox="0 0 35 52.526">
  <defs>
    <linearGradient id="linear-gradient" y1="1" x2="1" gradientUnits="objectBoundingBox">
      <stop offset="0" stop-color="#565ca6"/>
      <stop offset="1" stop-color="#32a5aa"/>
    </linearGradient>
  </defs>
  <path id="Manpower" d="M25.759.959l-.056.812a.843.843,0,0,1-.43.669,2.287,2.287,0,0,1-1.091.367H20.371a4.788,4.788,0,0,0-4.754,4.8V11.1c0,.136,0,.175,0,.042,0-.077,0-.1,0,.044V12.68a.882.882,0,0,0,0,.194V15.9a7.925,7.925,0,0,0,1.825,5.032V24.6l-.054.2L9.434,29.443a6.883,6.883,0,0,0-3.457,5.971v16.5h.115c-.042.5-.075,1-.075,1.512H7.763a15.714,15.714,0,1,1,31.428,0h1.746c0-.512-.031-1.018-.075-1.519h.115V35.245a6.6,6.6,0,0,0-3.314-5.727h-.007l-7.969-4.742V20.717a7.927,7.927,0,0,0,1.65-4.819V11.187c0-.113,0-.1,0-.037s0,.089,0-.042V5.937l-.007-.056a6.5,6.5,0,0,0-1.367-3.454A4.355,4.355,0,0,0,26.569.964V.959ZM26.89,2.834a2.487,2.487,0,0,1,1.746.726,4.889,4.889,0,0,1,.955,2.525V11.1c0-.124,0-.094,0,.03,0,.159,0,.145,0,.045v.19a4.423,4.423,0,0,0-1.123-.384,13.854,13.854,0,0,0-3.108-.07,9.323,9.323,0,0,1-2.729-.164A2.825,2.825,0,0,1,20.769,9.3a.873.873,0,0,0-1.6.211c.031-.119-.1.183-.337.464a9.69,9.69,0,0,1-.911.92c-.192.171-.37.29-.559.433v-.147c0,.127,0,.087,0-.04,0-.157,0-.14,0-.04V7.606A3.006,3.006,0,0,1,20.371,4.55H24.3a3.875,3.875,0,0,0,1.983-.686c.314-.22.4-.676.608-1.03Zm-6.635,8.114a5.242,5.242,0,0,0,1.908,1.486,10.486,10.486,0,0,0,3.27.229,13.558,13.558,0,0,1,2.718.038,1.947,1.947,0,0,1,1.439.869v2.322a6.115,6.115,0,1,1-12.229,0V13.427c.166-.084.325-.175.491-.279a9.842,9.842,0,0,0,1.231-.952,11.205,11.205,0,0,0,1.083-1.1c.038-.045.051-.1.087-.148Zm7.686,11.482V25.71a12.69,12.69,0,0,1-2.991,4.215L23.5,31.278l-1.456-1.421a15.207,15.207,0,0,1-2.855-4.164V22.545a7.745,7.745,0,0,0,8.754-.115Zm-11.2,4.777-1.116,4.129-.007.059a1.847,1.847,0,0,0,2.544,1.9h.007l3.248-1.613L22.6,32.844v3.131a17.31,17.31,0,0,0-8.726,2.849V37.731H12.132v2.42a17.549,17.549,0,0,0-4.409,5.784V35.414a5.133,5.133,0,0,1,2.584-4.459h0Zm13.682.042L36.78,31.03h.007a4.847,4.847,0,0,1,2.444,4.215V45.936a17.547,17.547,0,0,0-4.37-5.75V37.731H33.115v1.117a17.313,17.313,0,0,0-8.747-2.874v-3.12l1.271-1.184L29.076,33.3h.007a1.871,1.871,0,0,0,2.588-1.908l-.01-.079-.023-.079s-.464-1.442-.908-2.916c-.115-.386-.2-.707-.309-1.07Zm-11.953.244a16.706,16.706,0,0,0,1.811,2.8L17.41,31.718c-.059.028-.065,0-.052-.1Zm10.3.346c.1.339.182.639.286.992.428,1.418.828,2.663.869,2.8.005.094-.023.134-.122.089l-2.952-1.4a13.625,13.625,0,0,0,1.921-2.479ZM22.6,39.074v2.165H24.35V39.074Zm-1.968.253-1.685.454.566,2.093,1.685-.457Zm5.685,0-.569,2.09,1.685.457.569-2.1Zm3.52,1.227L28.746,42.43l1.507.88,1.1-1.875Zm-12.728.037-1.507.88L16.7,43.346l1.507-.88Zm15.819,2-1.55,1.531,1.227,1.24,1.549-1.529Zm-18.909.068L12.8,43.9l1.549,1.533,1.227-1.241ZM18.9,44.427a.873.873,0,0,0-.812,1.2l2.841,7.113a.873.873,0,0,0,.082.154v0a2.406,2.406,0,0,0-.052.506h1.746a.771.771,0,0,1,1.542,0h1.746a2.8,2.8,0,0,0-1.6-2.376c-.763-.663.131.108-.655-.576l.655.58-4.8-6.268a.873.873,0,0,0-.684-.332Zm16.473.908-1.9,1.084.866,1.514,1.9-1.081Zm-23.793.112-.866,1.519,1.9,1.083.866-1.516ZM37,48.509l-2.113.559.445,1.688L37.45,50.2Zm-27.056.25L9.5,50.447l2.118.562.447-1.688Zm12,1.832.443.562c-.063.03-.122.065-.182.1ZM9.242,51.739v1.746h2.191V51.739Zm26.282,0v1.746h2.189V51.739Z" transform="translate(-5.977 -0.959)" fill-rule="evenodd" fill="url(#linear-gradient)"/>
</svg>
